<?xml version="1.0" standalone="no"?>
<!DOCTYPE svg PUBLIC "-//W3C//DTD SVG 20010904//EN"
 "http://www.w3.org/TR/2001/REC-SVG-20010904/DTD/svg10.dtd">
<svg version="1.0" xmlns="http://www.w3.org/2000/svg"
 width="964.000000pt" height="964.000000pt" viewBox="0 0 964.000000 964.000000"
 preserveAspectRatio="xMidYMid meet">
<metadata>
Created by potrace 1.14, written by Peter Selinger 2001-2017
</metadata>
<g transform="translate(0.000000,964.000000) scale(0.100000,-0.100000)"
fill="#000000" stroke="none">
<path d="M1567 9254 c-1 -1 -29 -5 -62 -8 -33 -3 -71 -8 -85 -10 -83 -18 -119
-26 -155 -36 -22 -6 -47 -12 -55 -12 -8 -1 -26 -9 -39 -19 -13 -10 -28 -16
-33 -13 -5 3 -17 -1 -26 -9 -9 -9 -20 -16 -24 -17 -35 -8 -48 -14 -48 -23 0
-6 -3 -7 -6 -4 -4 4 -19 -2 -34 -13 -15 -11 -30 -17 -34 -13 -3 3 -6 1 -6 -5
0 -7 -6 -12 -13 -12 -7 0 -26 -12 -43 -27 -16 -16 -33 -29 -37 -30 -12 -4
-100 -73 -93 -73 4 0 1 -6 -6 -14 -7 -8 -16 -12 -19 -10 -8 5 -69 -62 -69 -76
0 -6 -3 -9 -8 -6 -8 5 -138 -164 -135 -176 2 -4 -1 -8 -5 -8 -10 0 -37 -50
-34 -62 1 -5 -3 -8 -9 -8 -5 0 -7 -4 -4 -10 3 -5 2 -10 -2 -10 -8 0 -77 -152
-79 -175 0 -5 -4 -17 -7 -25 -4 -8 -8 -24 -10 -35 -1 -11 -6 -25 -10 -31 -3
-6 -9 -26 -11 -45 -3 -19 -7 -45 -10 -59 -3 -14 -9 -52 -13 -85 -8 -69 -8
-6567 0 -6635 10 -78 36 -198 52 -237 9 -21 15 -39 15 -41 -5 -9 13 -62 21
-62 5 0 8 -3 8 -7 -4 -22 3 -43 16 -57 9 -8 16 -18 15 -21 -1 -14 72 -145 81
-145 5 0 7 -4 4 -10 -3 -5 3 -15 15 -22 11 -7 20 -17 20 -23 0 -6 19 -33 43
-60 57 -66 132 -144 121 -125 -4 8 10 -3 33 -25 72 -70 140 -122 156 -117 4 1
7 -2 7 -6 0 -5 12 -14 27 -21 16 -7 39 -20 53 -29 14 -9 30 -17 35 -18 6 -1
30 -11 55 -22 57 -27 130 -53 130 -46 0 2 8 0 18 -5 21 -11 42 -16 150 -36 15
-3 59 -8 97 -12 95 -9 6536 -8 6605 1 113 14 182 26 192 33 5 2 16 6 25 8 69
16 109 30 115 39 4 6 8 7 8 3 0 -4 10 -2 23 5 12 7 24 13 27 13 15 4 67 31 83
43 9 9 17 12 17 8 0 -9 112 63 128 83 10 12 12 12 6 1 -5 -11 -2 -11 12 2 10
10 40 35 66 57 26 21 44 42 41 45 -4 3 0 6 7 6 15 0 70 55 70 70 0 6 5 8 10 5
6 -3 10 -2 10 2 0 5 10 19 23 33 12 14 38 47 57 75 19 27 40 55 45 61 6 6 19
30 29 53 11 22 23 41 28 41 5 0 7 4 3 9 -3 5 -1 12 5 16 5 3 10 15 10 26 0 10
5 19 10 19 6 0 10 8 10 18 0 10 3 22 8 26 4 4 7 11 8 14 0 4 3 14 7 22 8 21
37 114 38 122 0 4 7 35 15 69 8 33 17 91 21 127 8 77 9 6544 1 6612 -10 87
-30 195 -39 215 -5 11 -12 30 -14 43 -3 12 -7 31 -9 41 -3 11 -10 30 -17 43
-7 13 -14 32 -16 43 -2 10 -8 22 -14 26 -6 3 -10 8 -8 10 4 7 -41 98 -51 104
-6 4 -8 10 -5 15 3 5 1 11 -4 14 -5 4 -28 34 -52 69 -23 34 -54 76 -70 92 -15
17 -45 49 -67 73 -21 23 -44 42 -49 42 -6 0 -23 16 -37 35 -15 19 -34 35 -42
35 -7 0 -14 5 -14 10 0 6 -8 14 -17 17 -10 4 -26 15 -35 26 -10 11 -18 16 -18
11 0 -5 -4 -4 -8 1 -4 6 -32 23 -62 39 -30 16 -58 34 -62 40 -4 6 -8 8 -8 3 0
-4 -22 4 -48 17 -65 33 -199 73 -307 91 -22 4 -56 9 -75 12 -31 4 -6559 11
-6563 7z m6533 -319 c30 -3 64 -8 75 -12 11 -3 29 -7 40 -8 62 -7 234 -79 320
-133 22 -14 40 -24 40 -22 0 2 14 -10 31 -26 44 -42 74 -65 74 -56 0 4 8 -5
18 -21 10 -15 22 -25 25 -22 4 3 5 2 2 -1 -2 -4 11 -25 30 -47 19 -22 35 -47
35 -54 0 -7 4 -13 8 -13 5 0 15 -12 23 -27 8 -16 16 -30 19 -33 6 -6 32 -63
32 -70 0 -3 5 -11 11 -19 6 -7 12 -20 13 -28 1 -8 6 -22 10 -31 4 -9 8 -19 9
-22 18 -59 29 -99 30 -116 1 -12 5 -29 9 -39 3 -10 9 -46 13 -79 7 -75 7
-6481 0 -6551 -10 -94 -49 -245 -70 -272 -5 -7 -6 -13 -2 -13 4 0 -2 -16 -14
-36 -12 -19 -21 -40 -21 -46 0 -5 -9 -23 -21 -39 -11 -16 -17 -29 -13 -29 4 0
-1 -7 -12 -15 -10 -8 -16 -15 -12 -15 8 0 -8 -21 -71 -92 -18 -21 -29 -38 -25
-38 5 0 -8 -12 -29 -27 -20 -14 -37 -30 -37 -35 0 -4 -5 -8 -10 -8 -6 0 -20
-9 -32 -20 -11 -10 -35 -26 -53 -34 -18 -9 -38 -22 -45 -31 -7 -8 -16 -15 -21
-15 -5 0 -32 -11 -61 -25 -60 -27 -131 -53 -168 -61 -14 -3 -45 -10 -70 -15
-25 -6 -70 -13 -100 -16 -78 -7 -6460 -6 -6545 1 -82 7 -97 10 -110 17 -5 4
-28 10 -50 13 -72 13 -219 77 -302 133 -80 53 -183 141 -183 156 0 4 -8 15
-18 25 -34 36 -62 72 -55 72 3 0 -1 8 -10 18 -17 18 -87 161 -91 184 -1 7 -5
18 -9 24 -8 14 -37 119 -43 159 -2 17 -7 53 -10 80 -8 62 -9 6455 -1 6545 3
36 11 80 16 99 6 19 9 36 7 38 -7 7 52 170 85 235 17 35 43 78 57 96 13 17 22
32 19 32 -7 0 47 64 94 111 43 43 142 119 155 119 5 0 22 11 37 25 15 14 27
24 27 21 0 -3 34 11 75 29 41 19 79 35 83 35 4 0 25 5 47 11 22 6 48 13 57 15
10 2 28 6 41 9 12 3 54 8 92 11 39 3 71 7 72 7 5 5 6437 -3 6483 -8z"/>
<path d="M2988 8294 c-2 -1 -37 -4 -78 -7 -41 -3 -100 -11 -130 -17 -30 -6
-70 -13 -89 -16 -19 -2 -37 -6 -41 -9 -4 -2 -21 -7 -38 -10 -68 -12 -256 -80
-294 -107 -16 -11 -28 -16 -28 -12 0 3 -6 1 -13 -5 -8 -6 -17 -8 -20 -4 -4 3
-7 1 -7 -5 0 -7 -6 -12 -14 -12 -7 0 -19 -7 -26 -15 -7 -9 -15 -13 -17 -11 -3
3 -12 -1 -19 -7 -34 -28 -40 -32 -54 -35 -8 -2 -18 -9 -22 -15 -4 -7 -8 -8 -8
-4 0 4 -6 3 -12 -3 -7 -6 -38 -30 -68 -53 -31 -23 -69 -54 -85 -69 -16 -16
-33 -28 -38 -28 -4 0 -5 -4 -2 -10 3 -5 0 -10 -7 -10 -19 0 -100 -84 -91 -95
5 -4 3 -6 -2 -2 -6 3 -22 -8 -35 -26 -14 -17 -36 -41 -50 -54 -14 -13 -22 -23
-18 -23 3 0 -7 -15 -22 -32 -16 -18 -29 -36 -29 -41 0 -4 -13 -19 -28 -33 -16
-14 -21 -22 -13 -18 8 4 5 -4 -8 -18 -24 -27 -69 -101 -79 -130 -3 -10 -9 -18
-14 -18 -5 0 -8 -3 -7 -7 1 -5 -11 -35 -26 -68 -16 -33 -29 -66 -29 -72 0 -7
-4 -13 -9 -13 -5 0 -7 -4 -4 -8 2 -4 -4 -28 -15 -52 -11 -24 -21 -51 -22 -59
-1 -9 -6 -22 -11 -29 -4 -7 -5 -16 -2 -19 3 -3 1 -12 -6 -20 -6 -7 -8 -16 -5
-20 4 -3 2 -12 -4 -20 -6 -7 -9 -13 -5 -13 3 0 1 -11 -4 -24 -5 -13 -12 -46
-15 -73 -4 -26 -9 -59 -11 -73 -21 -115 -20 -374 1 -470 3 -14 8 -47 11 -75 4
-27 9 -54 12 -60 3 -5 7 -18 9 -30 5 -40 9 -55 16 -61 4 -4 7 -15 7 -25 0 -10
5 -30 11 -46 6 -15 10 -29 10 -31 -1 -1 6 -16 14 -32 8 -16 15 -32 15 -35 0
-3 1 -7 1 -10 1 -3 2 -8 3 -12 4 -25 132 -266 143 -270 7 -3 10 -9 7 -14 -3
-5 0 -9 5 -9 6 0 11 -6 11 -13 0 -8 9 -22 20 -32 11 -10 20 -24 20 -31 0 -7 3
-14 8 -16 4 -1 25 -25 46 -53 44 -55 204 -215 255 -255 17 -14 48 -40 69 -57
20 -18 43 -33 50 -33 6 0 12 -4 12 -8 0 -5 15 -16 33 -25 17 -10 57 -33 87
-51 30 -19 58 -32 62 -29 5 2 8 -1 8 -7 0 -6 5 -8 10 -5 6 3 13 -1 16 -10 4
-9 13 -14 20 -11 8 3 14 1 14 -5 0 -6 4 -8 9 -5 5 4 11 2 13 -2 4 -12 118 -54
118 -44 0 4 4 2 8 -5 9 -15 184 -64 282 -79 19 -3 46 -7 60 -10 27 -5 113 -13
200 -18 58 -4 124 19 152 52 26 30 49 101 39 120 -9 17 -11 24 -11 41 0 14
-55 72 -71 75 -8 2 -26 8 -41 14 -14 6 -70 13 -123 17 -53 3 -115 9 -138 15
-23 5 -55 12 -72 15 -70 14 -82 17 -126 31 -25 9 -52 17 -60 18 -8 2 -32 11
-54 22 -22 10 -44 19 -50 19 -5 0 -14 3 -20 7 -5 3 -41 22 -80 43 -38 21 -78
45 -87 53 -10 8 -18 11 -18 6 0 -5 -4 -4 -8 1 -15 21 -89 74 -96 68 -3 -3 -6
1 -6 10 0 10 -4 17 -10 17 -12 0 -153 140 -200 199 -19 24 -43 52 -53 62 -9
11 -14 19 -11 19 7 0 -58 94 -69 98 -4 2 -5 7 -2 12 3 5 -1 14 -8 22 -7 7 -14
16 -16 20 -3 11 -30 77 -51 123 -15 35 -41 107 -46 128 -1 4 -2 8 -4 10 -1 1
-3 9 -5 17 -2 8 -6 26 -9 40 -3 14 -8 36 -11 50 -3 14 -8 38 -10 53 -2 16 -6
40 -9 55 -9 41 -16 140 -15 207 1 61 7 170 9 170 1 0 3 14 5 30 4 27 17 92 30
153 3 13 17 58 32 100 14 42 26 82 27 88 1 7 8 19 15 28 7 8 10 19 7 25 -3 5
-3 11 1 13 5 1 16 19 25 38 38 78 77 142 116 194 23 30 42 60 42 66 0 6 5 8
10 5 6 -3 10 -3 10 2 0 4 13 22 28 38 16 17 29 33 30 38 1 4 3 6 5 5 1 0 30
26 65 59 34 33 62 57 62 54 0 -3 4 -1 8 5 12 19 164 124 178 124 8 0 14 4 14
8 0 4 28 21 62 36 91 42 198 86 198 81 0 -3 12 0 28 6 42 16 133 40 172 44 19
3 46 7 60 10 20 5 157 16 195 17 35 0 192 -15 199 -20 5 -3 23 -7 40 -9 57 -6
84 -11 143 -28 32 -10 63 -18 68 -20 39 -8 71 -19 80 -25 6 -4 37 -17 70 -30
69 -28 236 -126 248 -146 4 -8 15 -14 22 -14 8 0 15 -4 15 -10 0 -5 5 -10 11
-10 6 0 38 -27 71 -60 34 -33 65 -60 69 -60 5 0 9 -4 9 -8 0 -5 21 -33 46 -63
25 -30 54 -64 64 -76 10 -12 16 -24 13 -27 -4 -3 -1 -6 5 -6 7 0 12 -7 12 -15
0 -8 4 -15 8 -15 5 0 18 -17 29 -37 22 -39 83 -104 83 -88 0 5 6 1 13 -9 12
-17 76 -25 117 -14 39 9 87 59 96 98 2 11 6 30 9 43 6 23 -13 105 -27 122 -5
6 -24 34 -43 64 -19 30 -40 58 -47 63 -7 4 -9 8 -5 8 4 0 -16 28 -44 63 -76
90 -102 116 -111 111 -5 -3 -7 0 -6 8 2 7 -3 12 -9 11 -7 -2 -12 3 -10 10 1 6
-4 11 -11 9 -8 -1 -11 1 -8 6 3 5 -29 38 -72 73 -91 76 -172 133 -172 122 0
-4 -5 0 -11 10 -6 9 -14 15 -20 12 -5 -4 -9 -1 -9 5 0 5 -16 18 -35 27 -19 9
-35 20 -35 23 0 4 -6 7 -13 7 -6 0 -32 12 -57 28 -25 16 -46 28 -47 27 -2 -1
-22 6 -45 15 -24 10 -46 17 -50 15 -5 -1 -8 2 -8 7 0 8 -53 25 -77 24 -7 0
-13 3 -13 7 0 4 -12 10 -27 13 -16 3 -66 15 -113 26 -79 18 -124 26 -210 37
-40 5 -258 12 -262 8z"/>
<path d="M6394 8288 c-21 -4 -64 -10 -94 -13 -52 -5 -89 -11 -100 -15 -3 -1
-9 -3 -15 -5 -5 -1 -14 -3 -20 -5 -5 -1 -14 -3 -20 -4 -66 -11 -95 -20 -95
-29 0 -5 -3 -8 -6 -4 -3 3 -18 1 -33 -5 -14 -5 -35 -12 -46 -14 -22 -4 -97
-35 -105 -44 -3 -3 -14 -7 -25 -8 -11 -2 -23 -8 -26 -14 -3 -5 -8 -9 -10 -8
-9 3 -45 -15 -63 -32 -10 -9 -22 -16 -26 -13 -3 2 -45 -23 -93 -56 -49 -32
-90 -59 -93 -59 -2 0 -20 -16 -39 -35 -20 -19 -38 -34 -41 -34 -12 1 -93 -75
-88 -83 3 -4 0 -7 -8 -6 -7 2 -12 -3 -11 -9 2 -7 -3 -12 -10 -10 -6 1 -11 -4
-9 -11 1 -8 -2 -11 -6 -8 -5 3 -25 -13 -43 -35 -19 -22 -43 -50 -54 -63 -11
-13 -32 -37 -47 -54 -16 -18 -28 -36 -28 -41 0 -5 -7 -14 -15 -21 -9 -7 -14
-15 -11 -17 2 -2 -7 -16 -20 -30 -13 -14 -21 -29 -18 -34 3 -5 1 -9 -4 -9 -14
0 -39 -79 -37 -120 1 -32 38 -120 51 -120 3 0 2 6 -2 13 -4 6 4 0 19 -15 14
-16 34 -28 44 -29 10 0 27 -2 37 -4 42 -8 146 58 146 92 0 8 4 12 8 9 5 -3 15
7 23 22 16 32 46 77 73 108 10 12 18 25 18 28 -1 2 28 34 64 70 35 37 64 71
64 78 0 6 3 9 6 6 3 -3 21 11 41 31 19 20 40 36 46 36 7 1 11 7 9 14 -1 7 2
10 7 7 5 -4 12 -2 15 3 12 19 144 99 236 143 77 37 165 70 223 84 4 1 10 3 15
4 4 1 10 2 15 1 4 0 7 3 7 7 0 4 8 8 18 8 23 1 103 14 123 20 27 8 211 28 244
26 53 -2 170 -14 215 -22 30 -5 70 -12 88 -15 47 -8 243 -74 259 -87 8 -6 16
-8 19 -5 3 3 29 -8 57 -25 29 -17 73 -42 99 -55 25 -14 56 -34 67 -44 11 -10
23 -19 27 -19 9 0 111 -88 167 -142 21 -21 43 -38 49 -38 6 0 9 -3 5 -6 -3 -3
8 -20 24 -38 16 -17 44 -52 61 -78 17 -27 35 -48 40 -48 4 0 8 -5 8 -11 0 -6
13 -29 29 -52 29 -44 93 -173 106 -217 4 -14 12 -31 18 -38 5 -7 11 -20 12
-30 4 -37 18 -83 26 -88 5 -3 7 -9 4 -13 -2 -5 0 -23 6 -42 5 -19 12 -50 14
-69 2 -19 7 -46 10 -60 18 -74 18 -318 1 -400 -5 -23 -16 -86 -21 -120 -1 -8
-10 -41 -19 -72 -10 -32 -17 -60 -17 -63 0 -2 -11 -29 -24 -60 -14 -30 -23
-55 -20 -55 2 0 -13 -33 -35 -74 -21 -41 -36 -77 -32 -80 3 -3 0 -6 -6 -6 -6
0 -18 -15 -27 -34 -9 -18 -25 -43 -35 -54 -11 -12 -20 -26 -20 -32 0 -5 -4
-10 -10 -10 -5 0 -10 -7 -10 -15 0 -8 -4 -15 -8 -15 -5 0 -15 -11 -22 -25 -7
-13 -17 -22 -22 -19 -4 3 -8 0 -8 -5 0 -18 -147 -159 -228 -218 -42 -31 -80
-61 -83 -66 -3 -5 -10 -9 -15 -9 -19 -1 -54 -22 -54 -31 0 -6 -3 -8 -6 -4 -3
3 -23 -5 -44 -18 -21 -13 -41 -21 -44 -17 -4 3 -10 1 -14 -5 -7 -11 -194 -78
-242 -87 -14 -2 -25 -5 -25 -6 0 -3 -40 -11 -75 -15 -19 -2 -46 -7 -60 -10
-14 -3 -54 -7 -90 -10 -102 -8 -149 -15 -155 -26 -4 -5 -11 -7 -16 -3 -16 9
-77 -63 -88 -103 -6 -22 -6 -45 1 -66 14 -42 57 -99 69 -92 5 4 12 -1 15 -10
4 -9 13 -14 20 -11 7 3 16 1 19 -3 2 -5 28 -7 57 -5 106 6 203 14 218 19 8 3
32 7 52 9 20 3 56 10 80 17 24 6 57 14 73 16 17 3 37 9 46 14 9 4 19 5 23 2 3
-3 6 -1 6 6 0 7 4 10 8 7 5 -3 21 1 35 9 15 8 30 14 33 13 10 -1 99 36 123 51
13 8 31 16 40 18 9 1 17 7 19 13 2 5 8 8 13 5 7 -5 235 135 249 154 3 3 23 19
44 35 62 47 215 196 222 218 3 11 8 17 11 14 4 -3 20 13 37 37 17 23 36 48 43
55 7 7 13 17 13 20 0 4 10 19 23 33 21 23 28 34 60 92 6 12 15 24 18 27 10 9
79 150 73 150 -3 0 2 7 10 16 9 8 17 22 17 30 2 22 4 28 17 52 7 12 11 22 8
22 -3 0 3 19 14 43 10 23 20 56 23 73 3 17 10 41 16 53 7 11 10 21 7 21 -3 0
0 15 5 33 5 17 12 52 15 77 3 25 7 53 10 62 21 71 21 356 0 473 -3 17 -8 46
-11 65 -6 45 -9 61 -30 140 -9 36 -19 72 -21 80 -8 36 -40 116 -47 121 -5 3
-8 8 -6 10 5 8 -34 99 -42 99 -5 0 -8 3 -7 8 4 13 -13 52 -23 52 -5 0 -9 7 -9
16 0 14 -32 68 -50 84 -3 3 -6 11 -8 18 -4 19 -44 72 -54 72 -5 0 -7 4 -4 8 3
5 -10 25 -28 45 -18 20 -32 38 -30 40 2 2 -48 57 -111 122 -63 66 -115 117
-115 113 0 -3 -16 10 -35 28 -20 18 -84 65 -143 104 -59 39 -112 75 -119 80
-7 6 -14 10 -17 10 -3 0 -36 14 -73 32 -38 17 -70 32 -73 33 -3 1 -18 7 -35
14 -71 29 -209 71 -242 73 -5 0 -18 4 -31 9 -13 5 -47 12 -75 15 -29 4 -55 8
-59 10 -24 14 -350 23 -414 12z"/>
<path d="M2838 6847 c-21 -5 -38 -13 -38 -19 0 -5 -4 -7 -9 -3 -10 6 -37 -34
-33 -47 1 -5 -3 -8 -9 -8 -6 0 -9 -7 -6 -15 4 -8 2 -17 -3 -20 -15 -9 0 -88
26 -135 14 -25 40 -56 59 -70 19 -14 37 -33 41 -43 3 -9 9 -15 13 -12 4 2 14
-7 21 -20 7 -14 16 -25 20 -25 4 0 47 -41 96 -91 49 -50 97 -99 107 -108 26
-23 89 -86 108 -108 9 -10 27 -27 40 -39 13 -12 31 -30 40 -40 9 -10 58 -59
108 -108 50 -49 91 -92 91 -95 0 -3 16 -17 35 -31 19 -14 37 -32 40 -41 3 -9
15 -21 28 -28 12 -7 31 -25 42 -41 11 -16 21 -28 22 -26 5 4 133 -126 133
-135 0 -4 9 -11 20 -14 11 -3 20 -10 20 -14 0 -8 24 -34 61 -67 13 -12 31 -30
40 -40 9 -10 58 -59 108 -108 50 -49 91 -92 91 -95 0 -3 16 -17 35 -31 19 -14
37 -32 40 -41 3 -9 15 -21 28 -28 12 -7 31 -25 42 -41 11 -16 21 -28 22 -26 4
3 133 -125 134 -133 0 -3 20 -22 44 -41 24 -19 46 -42 50 -51 3 -9 15 -21 28
-28 12 -6 31 -25 42 -40 20 -28 20 -44 18 -952 -1 -618 2 -936 9 -959 6 -19
19 -47 30 -62 24 -35 99 -68 135 -61 16 3 33 6 39 7 7 1 20 8 30 16 9 8 18 13
18 11 2 -10 33 16 51 44 20 29 20 52 22 970 1 1034 1 990 8 983 5 -5 189 176
206 203 5 8 9 10 9 6 0 -4 6 -2 14 5 8 7 12 16 10 19 -2 3 8 11 22 18 14 6 23
15 19 20 -3 5 3 12 14 16 11 3 29 20 40 38 11 18 21 29 21 25 0 -4 84 77 188
178 367 363 609 604 605 604 -2 0 16 17 41 38 24 20 45 43 45 50 1 7 4 12 9
10 4 -2 39 28 77 66 39 38 64 66 56 61 -10 -5 -12 -4 -7 3 4 7 12 12 17 12 6
0 73 62 150 138 76 76 141 136 144 134 3 -3 5 -1 5 5 0 5 43 52 96 104 99 97
122 134 126 197 2 44 -11 102 -23 102 -5 0 -9 7 -9 15 0 9 -12 21 -27 27 -86
36 -162 26 -219 -27 -19 -18 -34 -30 -34 -26 0 3 -4 0 -8 -6 -5 -7 -103 -109
-219 -227 -117 -118 -209 -217 -206 -220 4 -3 2 -6 -4 -6 -13 0 -83 -68 -83
-81 0 -6 -4 -7 -10 -4 -5 3 -10 -2 -10 -11 0 -10 -3 -15 -6 -12 -7 7 -84 -68
-84 -82 0 -5 -6 -9 -12 -8 -7 2 -12 -3 -10 -9 1 -7 -2 -13 -7 -13 -4 0 -20
-11 -35 -25 -15 -14 -25 -25 -23 -25 3 0 -48 -51 -113 -112 -65 -62 -118 -115
-119 -118 0 -3 -183 -190 -406 -415 -365 -369 -407 -408 -419 -392 -7 9 -17
17 -22 18 -5 0 -31 27 -59 59 -27 32 -53 59 -56 59 -8 1 -79 71 -73 71 3 0 -1
6 -8 14 -7 8 -16 12 -20 9 -5 -2 -8 0 -8 6 0 13 -113 127 -122 123 -5 -1 -8 4
-8 11 0 16 -36 47 -45 39 -4 -4 -5 -2 -3 4 2 6 -120 135 -271 287 -151 152
-278 282 -283 289 -4 7 -8 9 -8 4 0 -5 -9 2 -19 16 -31 38 -103 108 -112 108
-5 0 -9 4 -9 8 0 12 -69 82 -80 82 -6 0 -9 3 -8 8 4 11 -563 582 -597 600 -16
9 -37 18 -45 19 -51 9 -69 9 -102 0z"/>
<path d="M3636 4293 c-2 -2 -10 -6 -18 -7 -33 -7 -56 -22 -97 -65 -58 -62
-181 -208 -181 -216 0 -4 -9 -19 -20 -35 -11 -15 -17 -30 -13 -34 3 -3 2 -6
-4 -6 -13 0 -73 -103 -73 -125 0 -8 -4 -15 -10 -15 -5 0 -13 -12 -16 -27 -4
-15 -13 -34 -21 -41 -7 -7 -14 -20 -14 -28 -2 -21 -1 -18 -36 -104 -16 -39
-23 -62 -29 -103 -2 -15 -8 -36 -14 -47 -6 -11 -10 -23 -9 -27 1 -4 0 -10 -1
-13 -3 -10 -10 -46 -15 -89 -4 -25 -8 -48 -11 -52 -2 -4 -7 -43 -11 -86 -12
-159 -5 -306 22 -453 4 -19 8 -44 10 -55 2 -11 6 -30 9 -42 8 -31 24 -96 30
-118 1 -5 7 -20 14 -31 6 -12 9 -24 5 -27 -3 -4 0 -14 8 -23 8 -9 14 -22 14
-28 2 -24 83 -198 97 -207 6 -3 9 -8 8 -10 -2 -6 13 -43 20 -49 3 -3 21 -30
40 -60 19 -30 38 -56 42 -58 5 -2 8 -10 8 -17 0 -8 6 -18 13 -22 6 -4 26 -26
42 -48 34 -45 215 -231 215 -220 0 3 12 -7 26 -24 14 -17 30 -31 35 -31 5 0
18 -8 28 -17 31 -28 44 -38 92 -69 24 -16 46 -32 47 -36 2 -5 8 -8 14 -8 6 0
30 -14 55 -30 24 -17 49 -28 54 -25 5 4 9 1 9 -5 0 -6 4 -9 9 -5 5 3 12 1 16
-4 6 -11 108 -59 133 -63 9 -2 19 -5 22 -8 5 -6 145 -52 170 -57 8 -1 27 -4
42 -7 15 -2 31 -7 37 -10 6 -4 29 -9 51 -11 22 -2 66 -8 98 -14 123 -20 319
-18 467 5 22 3 49 8 60 9 11 2 22 4 25 5 3 1 9 2 14 1 5 -1 16 1 25 5 17 7 29
10 71 18 14 2 57 15 95 27 39 13 72 23 75 24 3 1 19 8 35 15 17 7 35 14 40 15
21 5 198 96 228 117 18 13 34 23 37 23 39 2 350 279 420 373 14 19 30 39 35
45 6 7 21 29 35 49 14 21 28 38 33 38 4 0 7 4 7 9 0 5 22 47 50 92 27 45 47
86 44 90 -3 5 -1 9 5 9 8 0 27 40 22 48 -1 1 5 10 14 18 8 9 16 22 16 30 2 22
4 28 16 49 6 11 11 23 11 28 1 4 10 32 21 62 12 31 20 59 20 63 -1 4 0 9 1 12
1 3 3 12 5 20 2 8 7 26 10 40 9 34 15 67 20 114 3 21 7 42 10 47 7 11 18 158
18 244 0 66 -8 178 -17 235 -2 14 -7 48 -10 75 -4 27 -9 51 -11 55 -2 4 -6 17
-9 31 -22 115 -102 339 -126 354 -6 4 -8 10 -5 15 5 9 -81 171 -97 181 -5 3
-8 9 -6 12 1 3 -6 16 -17 29 -11 13 -28 36 -38 51 -19 30 -27 40 -91 116 -78
93 -96 105 -186 115 -29 3 -90 -25 -111 -50 -12 -16 -12 -17 1 -9 8 4 5 -2 -8
-14 -12 -12 -20 -26 -17 -32 4 -5 1 -9 -4 -9 -27 0 -3 -142 27 -159 9 -6 14
-11 10 -11 -4 0 15 -24 43 -52 27 -29 62 -71 76 -93 15 -22 36 -48 48 -58 11
-10 14 -15 6 -11 -8 4 -3 -8 11 -27 13 -19 32 -50 42 -69 9 -19 21 -42 25 -50
11 -18 60 -130 66 -150 1 -3 7 -25 14 -50 7 -25 16 -52 19 -60 7 -21 9 -30 16
-70 4 -19 9 -42 11 -50 26 -96 32 -353 10 -450 -3 -14 -7 -41 -10 -60 -2 -19
-9 -50 -14 -69 -6 -19 -8 -38 -5 -42 3 -5 0 -9 -5 -9 -6 0 -10 -3 -9 -7 3 -13
-14 -77 -24 -89 -5 -7 -8 -16 -7 -20 2 -9 -15 -52 -59 -144 -15 -30 -25 -58
-24 -62 1 -5 -2 -8 -6 -8 -5 0 -19 -20 -32 -45 -12 -24 -31 -53 -41 -64 -11
-11 -19 -23 -19 -26 0 -9 -56 -77 -112 -137 -26 -28 -48 -56 -48 -60 0 -5 -4
-7 -9 -3 -5 3 -18 -5 -28 -19 -10 -13 -59 -52 -108 -87 -50 -35 -93 -67 -96
-72 -3 -5 -9 -8 -13 -8 -11 2 -111 -51 -118 -63 -4 -6 -8 -7 -8 -2 0 4 -11 1
-25 -8 -14 -9 -25 -14 -25 -12 0 3 -21 -4 -47 -15 -51 -22 -188 -64 -238 -73
-16 -3 -55 -10 -85 -16 -46 -9 -200 -23 -235 -22 -68 3 -188 13 -194 16 -3 2
-25 7 -49 11 -59 9 -241 61 -276 79 -16 8 -33 13 -38 10 -4 -3 -8 0 -8 7 0 7
-3 10 -6 7 -3 -4 -33 9 -66 28 -33 19 -62 34 -64 34 -12 0 -188 128 -231 168
-29 27 -55 47 -58 44 -3 -3 -5 2 -5 11 0 10 -8 17 -17 17 -9 0 -14 3 -10 6 8
8 -16 33 -25 27 -5 -2 -8 1 -8 7 0 6 -16 29 -36 50 -20 22 -44 50 -52 62 -9
13 -19 25 -23 28 -14 10 -129 204 -129 217 0 7 -5 13 -12 13 -6 0 -9 3 -5 6 3
3 -4 29 -17 58 -12 28 -28 74 -35 101 -7 28 -17 62 -23 76 -5 15 -11 37 -13
50 -6 51 -17 114 -20 119 -3 5 -18 177 -17 205 0 20 14 147 18 168 4 21 14 86
18 117 1 9 5 20 8 25 5 8 20 64 23 85 0 3 3 10 6 15 3 6 12 30 19 55 16 54 97
212 142 278 41 61 153 197 181 219 32 26 65 102 62 143 -8 104 -44 141 -152
154 -18 2 -34 2 -37 -1z"/>
</g>
</svg>
